<svg width="56" height="69" viewBox="0 0 56 69" fill="none" xmlns="http://www.w3.org/2000/svg">
<path d="M51.7507 24.5814C51.7497 24.4523 51.7478 23.8598 51.7459 23.2806C51.744 22.6891 51.7412 21.9276 51.7393 21.0388C51.7364 20.0647 51.7355 19.3212 51.7355 18.8873C49.8317 19.9564 47.702 20.1159 46.443 21.9266C46.1145 21.9655 45.7859 22.0045 45.4565 22.0444C45.2324 21.732 45.0083 21.4196 44.7842 21.1072C44.3057 20.3533 43.8775 19.7741 43.7844 19.3953C42.9422 15.9686 41.8446 12.7014 39.5402 9.91935C38.8518 9.08855 38.492 7.98619 37.9811 7.00727C35.1327 3.63278 31.4638 1.37109 27.1778 0.217459C26.0299 -0.0911256 24.6892 -0.0493485 23.5176 0.205115C22.4684 0.432043 21.5312 1.1736 20.7469 1.58188C19.6351 1.95503 18.5849 1.24576 17.7494 2.08985C15.6149 2.1924 14.034 3.67076 12.1351 4.37718C11.4809 4.62025 10.5333 5.1662 9.32267 4.99435C9.01314 4.95067 8.00383 4.8073 7.32114 3.98599C6.7391 3.28621 6.64036 2.39084 6.59668 1.98636C6.57104 1.75468 6.5682 1.56099 6.57009 1.42616C6.12763 1.65689 5.35 2.14208 4.76037 3.04789C4.0492 4.14075 4.01597 5.22697 3.99223 6.0179C3.9438 7.60545 4.4271 8.77902 4.53819 9.03918C5.04806 10.2289 5.83994 10.9306 7.42274 12.3339C10.2484 14.8377 11.8777 15.171 12.4712 15.2631C12.7893 15.3125 13.0532 15.3305 13.227 15.3381C13.2669 15.6951 13.2877 16.111 13.2621 16.5734C13.246 16.8554 13.2156 17.1155 13.1767 17.352C12.9431 17.4991 12.7105 17.6463 12.4769 17.7935C12.3183 18.0157 12.1597 18.2388 12.0012 18.461C11.7363 18.6328 11.0431 19.1323 10.651 20.0827C10.3757 20.7502 10.3643 21.3579 10.3984 21.7472C9.12612 20.095 7.07238 19.9127 5.22941 18.8778C5.16865 20.6885 5.1582 22.5894 5.21328 24.5719C5.31107 28.0537 5.59877 31.2895 5.9947 34.2482C6.85019 34.2482 7.70569 34.2482 8.56118 34.2482C8.19942 33.6329 7.88799 32.936 7.68195 32.1517C7.5044 31.4756 7.44553 30.8955 7.38666 29.2719C7.32874 27.6843 7.28411 25.4616 7.34583 22.7441C7.88039 22.8666 8.72829 23.1296 9.60846 23.7363C10.0101 24.0136 11.3612 24.9726 12.0164 26.825C12.4171 27.9578 12.3971 28.9699 12.3278 29.5966C12.1275 29.2244 11.8996 28.8408 11.6404 28.4515C10.6244 26.9266 9.45655 25.8119 8.4311 25.0153C9.24576 26.1006 10.6975 28.3461 11.1694 31.545C11.3137 32.5239 11.3422 33.4325 11.3062 34.2463C12.3354 34.2472 13.3637 34.2472 14.3929 34.2482C13.772 30.1929 13.5982 28.3366 13.5944 27.4716C13.5944 27.3833 13.5935 27.0539 13.5593 26.6086C13.5147 26.0189 13.4064 25.2109 13.1425 24.2975C13.0485 23.9737 12.9507 23.6889 12.8586 23.4467C12.9896 22.7479 13.2896 21.7823 14.0806 21.054C14.5591 20.6135 14.8487 20.6002 15.5997 20.2175C17.6943 19.1522 17.6886 18.1163 19.9009 16.9399C20.6292 16.5525 20.6197 16.6693 21.5227 16.1888C23.1321 15.3315 23.4349 14.8149 24.2192 14.4133C25.6928 13.6603 26.3005 14.6241 29.3398 14.6013C32.4133 14.5776 33.1938 13.5806 34.5117 14.3449C35.6663 15.0143 35.2751 15.8992 36.7478 17.1611C38.1682 18.3784 38.6667 17.6691 40.2979 18.9196C41.3965 19.7608 42.194 20.866 43.4388 22.5894C43.7075 22.9625 43.9268 23.2815 44.0835 23.5151C43.9981 23.7449 43.9079 24.0088 43.8205 24.3079C43.4464 25.5983 43.416 26.5753 43.3685 27.4811C43.2556 29.6165 43.1559 31.3427 42.609 33.2977C42.4903 33.7202 42.3782 34.0583 42.307 34.2643C43.4236 34.2586 44.5402 34.2529 45.6568 34.2463C45.6207 33.4344 45.6502 32.5296 45.7935 31.5545C46.2654 28.3556 47.7172 26.1101 48.5319 25.0248C47.5064 25.8214 46.3386 26.9361 45.3226 28.461C45.0634 28.8503 44.8355 29.2339 44.6352 29.6061C44.5659 28.9785 44.545 27.9673 44.9466 26.8345C45.6027 24.9821 46.9529 24.0221 47.3545 23.7458C48.2347 23.1391 49.0826 22.8761 49.6171 22.7536C49.6789 25.4711 49.6342 27.6938 49.5763 29.2814C49.5174 30.904 49.4595 31.4842 49.281 32.1612C49.0769 32.9398 48.7683 33.631 48.4094 34.2434C49.337 34.2434 50.2647 34.2434 51.1933 34.2444C51.2341 34.1247 51.3129 33.8855 51.3993 33.5816C52.2235 30.6676 51.7687 28.4363 51.7507 24.5814ZM39.3589 16.7016C38.6097 16.3446 37.9261 16.1841 37.4247 16.1081C37.2947 14.3411 37.7343 12.4735 36.3433 10.9999C36.1363 11.3455 35.6055 12.1174 34.6 12.5941C33.6809 13.0289 32.8548 12.9843 32.4352 12.9568C31.3869 12.8875 30.6131 12.4906 30.2181 12.2513C30.2979 12.1098 30.4621 11.8649 30.7584 11.6702C31.2179 11.3673 31.6898 11.3873 31.8474 11.4006C31.3423 11.0939 30.4213 10.6343 29.2154 10.584C28.1966 10.5422 27.4228 10.8109 26.5483 11.1252C25.4431 11.5221 24.7462 11.937 23.7255 12.5267C19.6237 14.8966 18.7065 15.2223 17.136 16.6683C16.6537 17.1127 16.2891 17.4972 16.0773 17.727C15.99 17.4887 15.8694 17.1004 15.8257 16.6114C15.6919 15.1026 16.4752 14.4351 18.0703 11.3911C18.8489 9.90416 19.0654 9.29649 19.8839 8.54354C20.463 8.01088 21.0422 7.68235 21.4543 7.48486C20.6814 7.61684 18.4482 8.10013 16.572 10.0627C15.0595 11.6446 14.5506 13.3802 14.3702 14.1769C14.0597 14.1284 13.622 14.0477 13.1102 13.9053C12.0686 13.6157 9.39293 12.8732 7.61074 10.4387C5.75354 7.90169 5.98521 5.05416 6.07446 4.27653C6.32323 4.63164 6.76759 5.17095 7.47401 5.62481C7.65631 5.7416 8.73209 6.41383 10.1269 6.41763C11.6508 6.42238 12.3164 5.62386 14.129 4.75887C15.0804 4.30502 16.4818 3.7695 18.3647 3.49035C17.9906 3.92237 17.8386 4.34015 17.983 4.54714C18.0741 4.67722 18.2859 4.72564 18.678 4.67911C19.806 4.54429 20.6491 3.83597 21.0109 3.54163C21.0109 3.54163 22.0269 2.71367 23.6296 1.72525C26.2863 0.0873776 31.9699 2.75735 35.1887 6.53917C36.611 8.21122 37.3896 9.90891 37.8273 11.1233C38.4559 11.6284 39.3883 12.5086 40.1431 13.855C41.124 15.603 41.3063 17.2466 41.3404 18.1192C40.9426 17.7128 40.2922 17.1459 39.3589 16.7016Z" fill="#DFE6E9"/>
<path d="M49.7805 68.4583H6.09534C5.64053 68.4583 5.27118 68.0889 5.27118 67.6341V67.2297C5.27118 66.7748 5.64053 66.4055 6.09534 66.4055H49.7805C50.2353 66.4055 50.6046 66.7748 50.6046 67.2297V67.6341C50.6046 68.0899 50.2362 68.4583 49.7805 68.4583Z" fill="#DFE6E9"/>
<path d="M55.5012 36.2449C54.7064 35.2622 53.1673 35.2926 52.5691 35.3011C49.4662 35.3486 40.4138 35.304 28.0561 35.3011C19.8364 35.3021 11.6167 35.303 3.39692 35.304C2.68575 35.2707 1.26531 35.3059 0.506667 36.2364C-0.296602 37.2229 0.0632546 38.7088 0.195234 39.325C1.89007 47.2552 3.58492 55.1853 5.26646 63.1183C5.35097 63.519 5.41933 64.7334 6.30995 65.4465C7.04201 66.0333 8.00195 66.0447 8.6514 65.9753C14.1641 65.982 19.6759 65.9886 25.1887 65.9943C32.684 65.9867 40.1783 65.9791 47.6736 65.9716C48.3154 65.9829 49.1538 65.8766 49.7938 65.3174C50.4546 64.7401 50.6132 63.9349 50.6721 63.6567C52.3783 55.5319 54.094 47.41 55.8126 39.288C55.9341 38.7155 56.294 37.2248 55.5012 36.2449ZM29.8497 52.4774H26.1505V48.7763H29.8497V52.4774Z" fill="#DFE6E9"/>
</svg>
