<svg width="445" height="544" viewBox="0 0 445 544" fill="none" xmlns="http://www.w3.org/2000/svg">
<path d="M411.234 195.335C411.226 194.308 411.211 189.6 411.196 184.998C411.181 180.297 411.158 174.246 411.143 167.184C411.121 159.443 411.113 153.535 411.113 150.087C395.985 158.583 379.062 159.85 369.057 174.239C366.446 174.548 363.836 174.857 361.217 175.174C359.437 172.692 357.656 170.21 355.876 167.727C352.073 161.736 348.67 157.134 347.931 154.123C341.238 126.893 332.516 100.931 314.204 78.8236C308.734 72.2216 305.874 63.4618 301.815 55.6828C279.18 28.8676 250.026 10.8953 215.967 1.72802C206.845 -0.724124 196.192 -0.392145 186.881 1.62993C178.544 3.43321 171.097 9.32591 164.865 12.5703C156.029 15.5355 147.684 9.89934 141.045 16.6069C124.083 17.4218 111.521 29.1695 96.4307 34.783C91.2322 36.7145 83.7022 41.0529 74.0822 39.6873C71.6226 39.3402 63.6021 38.2009 58.1772 31.6744C53.5521 26.1137 52.7674 18.9987 52.4203 15.7845C52.2166 13.9435 52.194 12.4043 52.2091 11.3329C48.6931 13.1664 42.5137 17.0219 37.8282 24.2199C32.1769 32.9043 31.9128 41.5358 31.7242 47.8209C31.3394 60.4362 35.1799 69.7619 36.0626 71.8293C40.1143 81.2833 46.4069 86.8591 58.9846 98.0107C81.4387 117.907 94.386 120.555 99.1017 121.287C101.629 121.68 103.727 121.823 105.108 121.883C105.424 124.72 105.59 128.025 105.387 131.699C105.258 133.94 105.017 136.008 104.708 137.886C102.852 139.056 101.003 140.225 99.147 141.395C97.8869 143.16 96.6269 144.934 95.3669 146.699C93.2618 148.065 87.7539 152.033 84.6378 159.586C82.4497 164.89 82.3592 169.719 82.6308 172.813C72.5204 159.684 56.2004 158.235 41.5554 150.011C41.0726 164.4 40.9896 179.505 41.4272 195.259C42.2043 222.927 44.4905 248.641 47.6368 272.151C54.4349 272.151 61.233 272.151 68.0311 272.151C65.1564 267.262 62.6816 261.724 61.0444 255.491C59.6334 250.119 59.1656 245.509 58.6978 232.607C58.2376 219.992 57.883 202.329 58.3734 180.735C62.6213 181.708 69.359 183.798 76.3533 188.619C79.5449 190.823 90.2815 198.443 95.4876 213.164C98.6716 222.165 98.5132 230.208 97.9624 235.188C96.3704 232.23 94.5596 229.182 92.4998 226.088C84.4265 213.971 75.1461 205.113 66.9974 198.783C73.4711 207.407 85.0075 225.251 88.7574 250.67C89.9042 258.449 90.1306 265.67 89.8439 272.136C98.0227 272.143 106.194 272.143 114.373 272.151C109.438 239.926 108.058 225.175 108.028 218.302C108.028 217.6 108.02 214.982 107.748 211.443C107.394 206.758 106.534 200.337 104.436 193.079C103.689 190.506 102.912 188.242 102.18 186.318C103.221 180.765 105.606 173.092 111.891 167.305C115.693 163.804 117.995 163.698 123.963 160.657C140.607 152.192 140.562 143.96 158.142 134.612C163.929 131.533 163.854 132.462 171.029 128.644C183.818 121.83 186.225 117.726 192.457 114.534C204.167 108.551 208.996 116.209 233.147 116.028C257.571 115.84 263.773 107.917 274.245 113.991C283.42 119.31 280.312 126.342 292.014 136.37C303.301 146.043 307.263 140.406 320.225 150.343C328.955 157.028 335.293 165.811 345.184 179.505C347.319 182.47 349.062 185.005 350.307 186.861C349.628 188.687 348.911 190.785 348.217 193.162C345.245 203.415 345.003 211.179 344.626 218.377C343.728 235.346 342.936 249.063 338.59 264.598C337.647 267.956 336.756 270.642 336.19 272.279C345.063 272.234 353.936 272.189 362.809 272.136C362.523 265.685 362.757 258.494 363.896 250.746C367.646 225.326 379.182 207.482 385.656 198.858C377.507 205.188 368.227 214.046 360.154 226.164C358.094 229.257 356.283 232.305 354.691 235.263C354.14 230.276 353.974 222.24 357.166 213.239C362.379 198.519 373.108 190.891 376.3 188.695C383.294 183.874 390.032 181.784 394.28 180.81C394.77 202.404 394.416 220.067 393.956 232.683C393.488 245.577 393.027 250.187 391.609 255.567C389.987 261.754 387.535 267.247 384.683 272.113C392.054 272.113 399.426 272.113 406.805 272.121C407.129 271.17 407.755 269.269 408.442 266.854C414.991 243.699 411.377 225.968 411.234 195.335ZM312.763 132.718C306.81 129.881 301.378 128.606 297.394 128.002C296.36 113.961 299.853 99.1198 288.8 87.4099C287.155 90.1563 282.937 96.2904 274.947 100.078C267.643 103.534 261.079 103.179 257.744 102.96C249.415 102.409 243.265 99.2556 240.127 97.3543C240.76 96.2301 242.066 94.2834 244.42 92.7367C248.072 90.3298 251.821 90.4883 253.074 90.5939C249.06 88.1568 241.741 84.505 232.159 84.1051C224.063 83.7731 217.914 85.9084 210.965 88.4058C202.182 91.5597 196.644 94.8568 188.533 99.5423C155.939 118.375 148.65 120.963 136.171 132.454C132.338 135.985 129.44 139.041 127.758 140.867C127.064 138.973 126.105 135.887 125.758 132.001C124.695 120.012 130.919 114.708 143.595 90.5184C149.782 78.7029 151.502 73.874 158.006 67.8908C162.609 63.658 167.211 61.0474 170.486 59.478C164.344 60.5268 146.598 64.3672 131.689 79.9629C119.67 92.533 115.625 106.325 114.192 112.656C111.725 112.271 108.246 111.63 104.18 110.498C95.9026 108.197 74.6406 102.296 60.4785 82.9507C45.7203 62.7903 47.5613 40.1626 48.2705 33.9832C50.2474 36.8051 53.7785 41.0907 59.392 44.6972C60.8406 45.6253 69.3892 50.9672 80.4729 50.9973C92.5828 51.0351 97.8718 44.6897 112.275 37.8161C119.836 34.2096 130.972 29.9541 145.934 27.7359C142.961 31.1689 141.754 34.4887 142.901 36.1335C143.625 37.1672 145.308 37.552 148.424 37.1823C157.387 36.1109 164.087 30.4823 166.962 28.1433C166.962 28.1433 175.035 21.564 187.771 13.7096C208.882 0.694341 254.047 21.9111 279.625 51.9631C290.928 65.25 297.115 78.7406 300.593 88.3907C305.588 92.4047 312.997 99.399 318.995 110.098C326.789 123.988 328.238 137.049 328.51 143.983C325.348 140.754 320.18 136.249 312.763 132.718Z" fill="#00B894"/>
<path d="M395.578 544H48.4364C44.8224 544 41.8873 541.065 41.8873 537.451V534.237C41.8873 530.623 44.8224 527.687 48.4364 527.687H395.578C399.192 527.687 402.127 530.623 402.127 534.237V537.451C402.127 541.072 399.199 544 395.578 544Z" fill="#00B894"/>
<path d="M441.037 288.018C434.722 280.209 422.491 280.451 417.738 280.518C393.08 280.896 321.146 280.541 222.946 280.518C157.629 280.526 92.3111 280.534 26.9934 280.541C21.3421 280.277 10.0547 280.556 4.0262 287.95C-2.35693 295.79 0.502649 307.598 1.55141 312.494C15.0194 375.511 28.4873 438.527 41.8496 501.566C42.5212 504.75 43.0644 514.401 50.1417 520.067C55.9589 524.73 63.587 524.82 68.7478 524.27C112.555 524.322 156.354 524.375 200.16 524.42C259.721 524.36 319.274 524.3 378.835 524.239C383.936 524.33 390.598 523.485 395.683 519.041C400.935 514.453 402.195 508.055 402.663 505.844C416.221 441.281 429.855 376.741 443.512 312.2C444.477 307.651 447.337 295.805 441.037 288.018ZM237.199 417.009H207.804V387.598H237.199V417.009Z" fill="#00B894"/>
</svg>
