<svg width="617" height="168" viewBox="0 0 617 168" fill="none" xmlns="http://www.w3.org/2000/svg">
<path d="M0 0.013031V35.9409C0 79.9292 0 123.918 0 167.906H40.077C40.1483 123.918 40.2196 79.9292 40.291 35.9409H73.2347V106.417H114.001V0.013031H0Z" fill="#00B894"/>
<path d="M504.987 0.0118408V167.905H616.919V132.667L542.983 133.368L543.162 102.101L616.919 101.756V63.4027L542.639 64.437V33.6927L616.919 34.0375V0.0118408H504.987Z" fill="#00B894"/>
<path d="M189.923 0.0594482H149.846V167.953H189.923V0.0594482Z" fill="#00B894"/>
<path d="M469.213 0.0118408H429.136V167.905H469.213V0.0118408Z" fill="#00B894"/>
<path d="M286.02 84.0416C259.068 110.993 234.137 135.924 225.244 144.817L248.427 168L309.179 107.248H286.02V84.0416ZM332.422 107.237H309.286L370.049 168L393.232 144.817L332.422 84.006V107.237ZM332.422 84.006C359.445 56.9828 384.447 31.9808 393.244 23.1831L370.061 0C361.192 8.86901 336.226 33.8354 309.25 60.811H332.422V84.006ZM309.215 60.811L248.416 0.0118641L225.233 23.1949L286.02 83.9822V60.811H309.215ZM309.238 60.811H309.215L309.227 60.8229L309.238 60.811ZM332.422 84.0179V84.006V84.0179ZM309.179 107.237H309.286L309.238 107.189L309.179 107.237ZM286.02 83.9822V84.0416L286.044 84.0179L286.02 83.9822Z" fill="#00B894"/>
</svg>
